# xmcd
#
# Track frame offsets:
#        150
#        20033
#        37613
#        56290
#        69620
#        82315
#        101823
#        119360
#        141033
#        160158
#        175065
#
# Disc length: 2628 seconds
#
# Revision: 1
# Processed by: cddbd v1.5.1PL2 Copyright (c) Steve Scherf et al.
# Submitted via: ExactAudioCopy v0.95b2
#
DISCID=8f0a420b
DTITLE=Lunasa - The Merry Sisters of Fate
DYEAR=1900
DGENRE=Celtic
TTITLE0=Aoibhneas
TTITLE1=Donogh and Mike's
TTITLE2=Killarney Boys of Pleasure
TTITLE3=The Merry Sisters of Fate
TTITLE4=Inion Ni Scannlain
TTITLE5=Casu
TTITLE6=Paistin Fionn
TTITLE7=The Minor Bee
TTITLE8=Scully's
TTITLE9=Return from Fingal
TTITLE10=Morning Nightcap
EXTD=
EXTT0=
EXTT1=
EXTT2=
EXTT3=
EXTT4=
EXTT5=
EXTT6=
EXTT7=
EXTT8=
EXTT9=
EXTT10=
PLAYORDER=
